<svg width="50" height="65" viewBox="0 0 50 65" fill="none" xmlns="http://www.w3.org/2000/svg">
<path fill-rule="evenodd" clip-rule="evenodd" d="M23.3088 13.6996H4.6588V31.0757C21.6488 33.0503 34.8487 47.4638 34.8487 64.8399H30.1487C30.1487 49.6358 18.3588 36.999 3.33886 35.6168C2.44886 35.4194 1.5588 35.4192 0.648802 35.4192C0.438803 35.4192 0.218789 35.4192 0.00878906 35.4192V8.96082H4.6588H24.6387C24.0187 10.343 23.5688 11.9225 23.3088 13.6996ZM44.7987 8.96082H49.1887H49.2387V13.6996H49.1887V35.4192C48.6587 35.4192 48.1188 35.4192 47.5888 35.4192C46.6788 35.4192 45.7887 35.4194 44.8987 35.6168C38.9787 36.0117 33.5588 38.3826 29.1688 41.9368C28.1888 40.752 27.1387 39.5662 26.0187 38.3815C31.1687 34.2349 37.5487 31.4705 44.5387 30.8781V13.6996H42.1787C43.2987 12.1199 44.1487 10.5405 44.7987 8.96082Z" fill="#228B22"/>
<path fill-rule="evenodd" clip-rule="evenodd" d="M0.000244141 42.9946V38.7935C0.212069 38.7935 0.43572 38.7935 0.647546 38.7935C15.0634 38.7935 26.7726 50.4909 26.7726 64.9069H22.5715C22.5715 52.8092 12.7451 42.9828 0.647546 42.9828C0.43572 42.9828 0.212069 42.9828 0.000244141 42.9946Z" fill="#93CE0C"/>
<path fill-rule="evenodd" clip-rule="evenodd" d="M33.2627 48.3138C32.6272 47.0429 31.9093 45.8072 31.1444 44.6186C35.628 40.9823 41.3592 38.7935 47.5845 38.7935C48.1258 38.7935 48.6554 38.8053 49.185 38.8406V43.0417C48.6554 43.0064 48.1258 42.9828 47.5845 42.9828C42.1124 42.9828 37.0991 44.9952 33.2627 48.3138Z" fill="#93CE0C"/>
<path fill-rule="evenodd" clip-rule="evenodd" d="M19.1512 64.9118H14.8009C14.8009 57.1029 8.45887 50.7692 0.650064 50.7692C0.433384 50.7692 0.21668 50.7692 0 50.7775V46.4273C0.21668 46.419 0.433384 46.4189 0.650064 46.4189C10.859 46.4189 19.1512 54.7028 19.1512 64.9118Z" fill="#228B22"/>
<path fill-rule="evenodd" clip-rule="evenodd" d="M49.1871 46.4856V50.8525C48.6621 50.7942 48.1288 50.7692 47.5871 50.7692C42.9285 50.7692 38.7949 53.0194 36.2114 56.5029C35.828 54.8361 35.328 53.2027 34.7196 51.6276C38.0531 48.4024 42.5868 46.4189 47.5871 46.4189C48.1288 46.4189 48.6621 46.4439 49.1871 46.4856Z" fill="#228B22"/>
<path fill-rule="evenodd" clip-rule="evenodd" d="M10.9221 64.9137H0.00683594V54.6648C0.219681 54.6509 0.432532 54.6462 0.650004 54.6462C6.31815 54.6462 10.9221 59.2455 10.9221 64.9137Z" fill="#93CE0C"/>
<path fill-rule="evenodd" clip-rule="evenodd" d="M49.1879 54.7712V64.9137H37.3148C37.3148 59.2455 41.9188 54.6462 47.5869 54.6462C48.1329 54.6462 48.665 54.6879 49.1879 54.7712Z" fill="#93CE0C"/>
<path fill-rule="evenodd" clip-rule="evenodd" d="M44.5897 0C44.4712 2.45789 44.2564 4.82428 43.7472 7.05479C43.5319 8.00867 43.2642 8.93592 42.9265 9.83656C42.0968 12.0721 40.8503 14.1362 38.9678 15.978C37.4008 17.513 35.4565 18.2612 33.3369 18.6372C31.5378 18.9605 29.7778 19.372 28.3777 20.7407C28.5313 17.4121 31.4978 13.2178 36.0363 9.83656C36.0975 9.78886 36.1587 9.74505 36.225 9.69681C36.0402 9.73174 35.8516 9.77999 35.6674 9.83656C30.1333 11.4986 24.8842 21.5193 25.7617 29.3838C24.858 26.5715 24.3622 23.5008 21.4914 21.8343C20.6623 21.3574 19.6879 21.1344 18.6919 20.9597C20.7719 22.0883 22.0273 23.7892 22.734 25.9676C22.5409 25.9936 22.3434 26.0025 22.1458 26.0025C20.9695 26.0025 19.7096 25.6005 18.5205 24.9133C18.3057 24.7913 18.0903 24.6555 17.8755 24.5113C17.7698 24.4414 17.6646 24.3671 17.5639 24.2922C17.2523 24.0648 16.9496 23.8203 16.6552 23.5574C15.1895 22.2497 14.0048 20.5355 13.4778 18.7242C14.3164 18.3965 15.185 18.2345 16.067 18.2345C16.7431 18.2345 17.4231 18.3266 18.1081 18.5146C18.279 18.5584 18.4459 18.6105 18.6173 18.6677C18.9595 18.7814 19.3017 18.9172 19.6484 19.0786C19.9033 19.2012 20.1576 19.3326 20.4119 19.4768C20.5655 19.5644 20.7235 19.6559 20.8771 19.7569C20.9038 19.7696 20.93 19.7874 20.9561 19.8051C21.1014 19.8966 21.246 19.9931 21.3907 20.0935C21.4085 20.1024 21.4258 20.1157 21.4436 20.1284C21.6061 20.2466 21.7641 20.3647 21.9216 20.4872C22.2772 20.7584 22.6327 21.0601 22.9839 21.3884C23.0412 21.4361 23.0979 21.4888 23.1508 21.5459C23.1948 21.5809 23.2343 21.6202 23.2738 21.6641C23.3962 21.7772 23.5147 21.8953 23.6333 22.0223C23.7913 22.1842 23.9493 22.3551 24.1074 22.5298C24.1074 20.3037 23.9404 17.9506 24.138 15.6236C24.3227 13.3925 24.823 11.4637 25.6304 9.83656C26.1479 8.78286 26.7934 7.8556 27.5703 7.05479C29.7249 4.81984 32.8589 3.57315 36.9139 3.34577C37.3613 3.32414 37.8137 3.2759 38.2611 3.2759C38.4892 3.2759 38.7129 3.28921 38.9372 3.31971C39.2048 3.35908 39.4636 3.37683 39.7095 3.37683C40.4207 3.37683 41.0567 3.22321 41.6271 2.94814C41.7807 2.87771 41.9259 2.79508 42.0662 2.70745C42.1891 2.6287 42.3077 2.54552 42.4262 2.45789C42.5531 2.36195 42.676 2.25714 42.7946 2.14733C43.1808 1.79739 43.5363 1.38201 43.8658 0.913947C44.0238 0.68657 44.2124 0.472501 44.5897 0Z" fill="#93CE0C"/>
</svg>
